<svg width="500" height="500" viewBox="0 0 500 500" fill="none" xmlns="http://www.w3.org/2000/svg">
<path fill-rule="evenodd" clip-rule="evenodd" d="M242.32 144.874C241.623 144.442 225.044 134.136 208.319 118.618C184.137 96.181 171.875 74.368 171.875 53.7865C171.875 7.16848 218.103 -14.9533 250 11.0705C281.826 -14.8954 328.125 7.04495 328.125 53.7865C328.125 74.368 315.863 96.181 291.68 118.618C274.955 134.136 258.377 144.442 257.679 144.874C252.969 147.783 247.03 147.783 242.32 144.874ZM117.188 264.704C157.638 264.704 190.43 231.783 190.43 191.174C190.43 150.564 157.638 117.644 117.188 117.644C76.737 117.644 43.9453 150.564 43.9453 191.174C43.9453 231.783 76.737 264.704 117.188 264.704ZM158.75 343.401L166.094 335.116C160.729 317.901 160.714 298.949 166.445 281.449C124.238 304.729 70.8037 295.452 38.9062 257.576C15.2148 276.439 0 305.587 0 338.234V485.294C0 493.412 6.5625 500 14.6484 500H135.332C133.701 495.402 132.812 490.451 132.812 485.294V411.764C132.812 386.548 142.021 362.264 158.75 343.401ZM333.555 281.439C375.667 304.695 429.139 295.521 461.094 257.576C484.785 276.439 500 305.587 500 338.234V485.294C500 493.412 493.438 500 485.352 500H364.668C366.299 495.402 367.188 490.451 367.188 485.294V411.764C367.188 386.548 357.979 362.264 341.25 343.401L333.906 335.116C339.278 317.878 339.277 298.975 333.555 281.439ZM382.812 264.704C423.263 264.704 456.055 231.783 456.055 191.174C456.055 150.564 423.263 117.644 382.812 117.644C342.362 117.644 309.57 150.564 309.57 191.174C309.57 231.783 342.362 264.704 382.812 264.704ZM180.635 362.95C196.729 383.695 221.836 397.058 250 397.058C278.164 397.058 303.271 383.695 319.365 362.95C330.889 375.95 337.891 393.048 337.891 411.764V485.294C337.891 493.412 331.328 500 323.242 500H176.758C168.672 500 162.109 493.412 162.109 485.294V411.764C162.109 393.048 169.111 375.95 180.635 362.95ZM250 367.646C282.36 367.646 308.594 341.31 308.594 308.822C308.594 276.334 282.36 249.998 250 249.998C217.64 249.998 191.406 276.334 191.406 308.822C191.406 341.31 217.64 367.646 250 367.646Z" fill="#9933FF"/>
<path d="M239.325 37.579C239.327 33.9515 242.203 31.0238 245.751 31.0396L254.315 31.078C257.862 31.0939 260.736 34.0474 260.735 37.6749L260.707 103.356C260.705 106.983 257.828 109.911 254.281 109.895L245.717 109.857C242.17 109.841 239.296 106.887 239.297 103.26L239.325 37.579Z" fill="white"/>
<path d="M282.135 59.6644C285.682 59.6803 288.557 62.6338 288.555 66.2612L288.551 75.0187C288.55 78.6462 285.673 81.5739 282.126 81.558L217.897 81.2704C214.35 81.2545 211.475 78.301 211.477 74.6735L211.48 65.9161C211.482 62.2886 214.359 59.3608 217.906 59.3767L282.135 59.6644Z" fill="white"/>
</svg>
